<svg xmlns="http://www.w3.org/2000/svg" xmlns:xlink="http://www.w3.org/1999/xlink" version="1.1" id="svg-icon" x="0px" y="0px" width="102" height="102" viewBox="0 0 136 136" style="enable-background:new 0 0 136 136;" xml:space="preserve">
<style type="text/css">
.icon-shape{fill:white;}
</style>
<g id="svg-icon">
<path class="icon-shape" d="M107.9,58.4c-2,0-3.9,0.6-5.5,1.7L76.1,37.4c0.9-1.5,1.5-3.2,1.5-5.1c0-5.3-4.3-9.6-9.6-9.6  c-5.2,0-9.5,4.2-9.6,9.4L35.6,46c-1.8-2.2-4.5-3.7-7.5-3.7c-5.3,0-9.6,4.3-9.6,9.6s4.3,9.6,9.6,9.6c1.5,0,2.9-0.4,4.2-1l5.3,7.2  L32,75.4c-1.2-0.5-2.5-0.9-3.9-0.9c-5.3,0-9.6,4.3-9.6,9.6c0,5.3,4.3,9.6,9.6,9.6c3.1,0,5.8-1.5,7.6-3.7l22.8,12.9  c0,0.3,0,0.5,0,0.8c0,5.3,4.3,9.6,9.6,9.6s9.6-4.3,9.6-9.6c0-1.9-0.6-3.7-1.6-5.2l26.4-22.7c1.6,1.1,3.4,1.7,5.5,1.7  c5.3,0,9.6-4.3,9.6-9.6C117.5,62.7,113.2,58.4,107.9,58.4z M99.7,63.1C99.2,64,98.8,65,98.6,66H77.4c-0.9-4.3-4.8-7.6-9.4-7.6  c-3.3,0-6.3,1.7-8,4.3l-10.8-4.3l13.3-18.3c1.6,1.1,3.4,1.7,5.5,1.7c2,0,3.8-0.6,5.3-1.6L99.7,63.1z M73.6,68c0,3.1-2.5,5.6-5.6,5.6  s-5.6-2.5-5.6-5.6c0-3.1,2.5-5.6,5.6-5.6S73.6,64.9,73.6,68z M58.6,69.5L47.2,74l-4.7-6.3l4.3-5.9l11.7,4.7c-0.1,0.5-0.1,1-0.1,1.5  C58.4,68.5,58.5,69,58.6,69.5z M68,26.7c3.1,0,5.6,2.5,5.6,5.6s-2.5,5.6-5.6,5.6s-5.6-2.5-5.6-5.6S64.9,26.7,68,26.7z M59.3,36.3  c0.1,0.3,0.3,0.6,0.4,0.8L45.4,56.9l-8-3.2c0.1-0.6,0.2-1.2,0.2-1.8c0-0.8-0.1-1.5-0.3-2.3L59.3,36.3z M22.5,51.9  c0-3.1,2.5-5.6,5.6-5.6s5.6,2.5,5.6,5.6s-2.5,5.6-5.6,5.6S22.5,55,22.5,51.9z M35.4,58c0.2-0.2,0.3-0.4,0.5-0.6l7.1,2.8L40,64.3  L35.4,58z M40.1,71.1l3.3,4.4l-7.6,3c-0.2-0.2-0.4-0.5-0.6-0.7L40.1,71.1z M28.1,89.7c-3.1,0-5.6-2.5-5.6-5.6c0-3.1,2.5-5.6,5.6-5.6  s5.6,2.5,5.6,5.6C33.6,87.2,31.1,89.7,28.1,89.7z M37.4,86.3c0.2-0.7,0.3-1.5,0.3-2.2c0-0.7-0.1-1.3-0.2-2l8.4-3.3l14.3,19.4  c-0.2,0.2-0.3,0.5-0.5,0.7L37.4,86.3z M68,109.3c-3.1,0-5.6-2.5-5.6-5.6s2.5-5.6,5.6-5.6s5.6,2.5,5.6,5.6S71.1,109.3,68,109.3z   M73.2,95.7c-1.5-1-3.3-1.5-5.2-1.5c-1.8,0-3.5,0.5-4.9,1.4L49.7,77.3L60,73.2c1.7,2.6,4.7,4.3,8,4.3c4.6,0,8.4-3.2,9.4-7.6h21.2  c0.2,1,0.6,2,1.2,2.9L73.2,95.7z M107.9,73.6c-3.1,0-5.6-2.5-5.6-5.6c0-3.1,2.5-5.6,5.6-5.6c3.1,0,5.6,2.5,5.6,5.6  C113.5,71.1,111,73.6,107.9,73.6z"/>
	</g>
</svg>