<?xml version="1.0" encoding="UTF-8"?>
<svg width="280px" height="254px" viewBox="20 0 260 254" version="1.1" xmlns="http://www.w3.org/2000/svg" xmlns:xlink="http://www.w3.org/1999/xlink">
    <!-- Generator: Sketch 52.2 (67145) - http://www.bohemiancoding.com/sketch -->
    <title>Artboard 8@2x</title>
    <desc>Created with Sketch.</desc>
    <defs>
        <linearGradient x1="50%" y1="56.3612196%" x2="50%" y2="103.761393%" id="linearGradient-1">
            <stop stop-color="#FFFFFF" offset="0%"></stop>
            <stop stop-color="#F7F7F7" offset="100%"></stop>
        </linearGradient>
        <path d="M4,0 L60.2758294,0 L94.721202,29.5481113 L94.721202,122.251021 C94.721202,124.46016 92.930341,126.251021 90.721202,126.251021 L4,126.251021 C1.790861,126.251021 2.705415e-16,124.46016 0,122.251021 L0,4 C-2.705415e-16,1.790861 1.790861,4.05812251e-16 4,0 Z" id="path-2"></path>
        <path d="M103.981132,42.1293103 C91.7996062,42.1293103 81.9245283,32.698343 81.9245283,21.0646552 C81.9245283,9.43096736 91.7996062,0 103.981132,0 C116.162658,0 126.037736,9.43096736 126.037736,21.0646552 C126.037736,32.698343 116.162658,42.1293103 103.981132,42.1293103 Z M103.981132,39.8964031 C114.871385,39.8964031 123.69968,31.4651424 123.69968,21.0646552 C123.69968,10.664168 114.871385,2.23290725 103.981132,2.23290725 C93.090879,2.23290725 84.2625846,10.664168 84.2625846,21.0646552 C84.2625846,31.4651424 93.090879,39.8964031 103.981132,39.8964031 Z" id="path-3"></path>
        <linearGradient x1="50%" y1="56.3612196%" x2="50%" y2="103.761393%" id="linearGradient-4">
            <stop stop-color="#FFFFFF" offset="0%"></stop>
            <stop stop-color="#E3F9FF" offset="100%"></stop>
        </linearGradient>
        <ellipse id="path-5" cx="59.0801887" cy="60.0732759" rx="7.08962264" ry="7.02155172"></ellipse>
        <rect id="path-6" x="96.1037736" y="20.2844828" width="15.754717" height="12.4827586"></rect>
    </defs>
    <g id="Artboard-8" stroke="none" stroke-width="1" fill="none" fill-rule="evenodd">
        <g id="Group-4" transform="translate(38.000000, 41.000000)">
            <g id="checkmark-list-copy" transform="translate(62.507714, 89.337880) rotate(-15.000000) translate(-62.507714, -89.337880) translate(15.007714, 25.837880)">
                <g id="Rectangle-78" stroke-linecap="round" stroke-linejoin="round">
                    <use fill="url(#linearGradient-1)" fill-rule="evenodd" xlink:href="#path-2"></use>
                    <path stroke="#3A7A98" stroke-width="1" d="M4,-0.5 L60.4609032,-0.5 L95.221202,29.318263 L95.221202,122.251021 C95.221202,124.736303 93.2064834,126.751021 90.721202,126.751021 L4,126.751021 C1.51471863,126.751021 -0.5,124.736303 -0.5,122.251021 L-0.5,4 C-0.5,1.51471863 1.51471863,-0.5 4,-0.5 Z"></path>
                    <path stroke="#FFFFFF" stroke-width="1" d="M94.221202,29.7779597 L60.0907556,0.5 L4,0.5 C2.06700338,0.5 0.5,2.06700338 0.5,4 L0.5,122.251021 C0.5,124.184018 2.06700338,125.751021 4,125.751021 L90.721202,125.751021 C92.6541986,125.751021 94.221202,124.184018 94.221202,122.251021 L94.221202,29.7779597 Z" stroke-linejoin="square"></path>
                </g>
                <path d="M60.3759836,126.251021 C55.1189194,117.594778 52.0966611,107.464146 52.0966611,96.6365841 C52.0966611,70.1873007 70.1309105,47.8966938 94.721202,41.0973226 L94.721202,120.016403 C94.721202,123.459687 91.8939935,126.251021 88.4064552,126.251021 L60.3759836,126.251021 Z" id="Combined-Shape" fill="#EBF6F8"></path>
                <g id="Group-45" transform="translate(36.309794, 28.055782)" fill="#EBF6F8">
                    <rect id="Rectangle-83" x="0" y="0" width="42.6245409" height="2.67197928" rx="1"></rect>
                    <path d="M0,7.67489467 C0,7.12540092 0.448575227,6.67994821 1.00872281,6.67994821 L28.2956491,6.67994821 C28.8527513,6.67994821 29.3043719,7.12117125 29.3043719,7.67489467 L29.3043719,8.35698103 C29.3043719,8.90647479 28.8557966,9.35192749 28.2956491,9.35192749 L1.00872281,9.35192749 C0.451620585,9.35192749 0,8.91070446 0,8.35698103 L0,7.67489467 Z" id="Rectangle-83-Copy"></path>
                </g>
                <g id="Group-45-Copy-2" transform="translate(36.309794, 91.960620)" fill="#EBF6F8">
                    <rect id="Rectangle-83" x="0" y="0" width="42.6245409" height="2.67197928" rx="1"></rect>
                    <path d="M0,7.67489467 C0,7.12540092 0.448575227,6.67994821 1.00872281,6.67994821 L28.2956491,6.67994821 C28.8527513,6.67994821 29.3043719,7.12117125 29.3043719,7.67489467 L29.3043719,8.35698103 C29.3043719,8.90647479 28.8557966,9.35192749 28.2956491,9.35192749 L1.00872281,9.35192749 C0.451620585,9.35192749 0,8.91070446 0,8.35698103 L0,7.67489467 Z" id="Rectangle-83-Copy"></path>
                </g>
                <g id="Group-45-Copy" transform="translate(36.309794, 59.228874)" fill="#EBF6F8">
                    <rect id="Rectangle-83" x="0" y="0" width="42.6245409" height="2.67197928" rx="1"></rect>
                    <rect id="Rectangle-83-Copy" x="0" y="6.67994821" width="15.9842028" height="2.67197928" rx="1"></rect>
                    <path d="M18.6482366,7.67489467 C18.6482366,7.12540092 19.0925507,6.67994821 19.65074,6.67994821 L28.3018685,6.67994821 C28.8555358,6.67994821 29.3043719,7.12117125 29.3043719,7.67489467 L29.3043719,8.35698103 C29.3043719,8.90647479 28.8600578,9.35192749 28.3018685,9.35192749 L19.65074,9.35192749 C19.0970727,9.35192749 18.6482366,8.91070446 18.6482366,8.35698103 L18.6482366,7.67489467 Z" id="Rectangle-83-Copy-2"></path>
                </g>
                <g id="Group" transform="translate(10.413824, 23.379819)">
                    <g id="Group-44" transform="translate(0.636983, 0.000000)">
                        <rect id="Rectangle-79" stroke="#00BE7A" fill="#64ECBB" x="0" y="0" width="20.5229271" height="20.0398446" rx="2"></rect>
                        <path d="M5.59996922,10.6485154 C5.04886154,10.1840338 4.21648695,10.243742 3.74080855,10.7818773 C3.26513015,11.3200127 3.32627767,12.1327943 3.87738535,12.5972758 L7.12452195,15.3340097 C7.66920929,15.7930801 8.49027143,15.7408309 8.96933304,15.2166132 L16.3373431,7.15409743 C16.8220515,6.6237006 16.7746488,5.81004434 16.2314662,5.33674532 C15.6882835,4.8634463 14.8550132,4.90973322 14.3703048,5.44013006 L7.86557099,12.5579974 L5.59996922,10.6485154 Z" id="Stroke-35" fill="#FFFFFF" fill-rule="nonzero"></path>
                    </g>
                    <g id="Group-44-Copy" transform="translate(0.636983, 32.063751)">
                        <rect id="Rectangle-79" stroke="#00BE7A" fill="#64ECBB" x="0" y="0" width="20.5229271" height="20.0398446" rx="2"></rect>
                        <path d="M5.59996922,10.6485154 C5.04886154,10.1840338 4.21648695,10.243742 3.74080855,10.7818773 C3.26513015,11.3200127 3.32627767,12.1327943 3.87738535,12.5972758 L7.12452195,15.3340097 C7.66920929,15.7930801 8.49027143,15.7408309 8.96933304,15.2166132 L16.3373431,7.15409743 C16.8220515,6.6237006 16.7746488,5.81004434 16.2314662,5.33674532 C15.6882835,4.8634463 14.8550132,4.90973322 14.3703048,5.44013006 L7.86557099,12.5579974 L5.59996922,10.6485154 Z" id="Stroke-35" fill="#FFFFFF" fill-rule="nonzero"></path>
                    </g>
                    <g id="Group-44-Copy" transform="translate(0.498164, 62.686148)">
                        <rect id="Rectangle-79" stroke="#64ECBB" x="0" y="0" width="20.5229271" height="20.0398446" rx="2"></rect>
                        <path d="M5.59996922,10.6485154 C5.04886154,10.1840338 4.21648695,10.243742 3.74080855,10.7818773 C3.26513015,11.3200127 3.32627767,12.1327943 3.87738535,12.5972758 L7.12452195,15.3340097 C7.66920929,15.7930801 8.49027143,15.7408309 8.96933304,15.2166132 L16.3373431,7.15409743 C16.8220515,6.6237006 16.7746488,5.81004434 16.2314662,5.33674532 C15.6882835,4.8634463 14.8550132,4.90973322 14.3703048,5.44013006 L7.86557099,12.5579974 L5.59996922,10.6485154 Z" id="Stroke-35" fill="#64ECBB" fill-rule="nonzero"></path>
                    </g>
                </g>
                <path d="M59.9900946,0 L59.9900946,27.6137968 C59.9900946,28.7187199 60.8835231,29.6144371 61.9821332,29.6144371 L94.721202,29.6144371 L59.9900946,0 Z" id="Path-26" stroke="#D9E6E8" fill="#EBF6F8" stroke-linecap="round" stroke-linejoin="round"></path>
            </g>
            <g id="stop-watch" transform="translate(43.000000, 0.000000)">
                <g id="Oval-4" stroke-linecap="round" stroke-linejoin="round" fill-rule="nonzero">
                    <use fill="#D8E5F0" xlink:href="#path-3"></use>
                    <path stroke="#3A7A98" stroke-width="1" d="M103.981132,42.6293103 C91.5284793,42.6293103 81.4245283,32.9797629 81.4245283,21.0646552 C81.4245283,9.14954742 91.5284793,-0.5 103.981132,-0.5 C116.433785,-0.5 126.537736,9.14954742 126.537736,21.0646552 C126.537736,32.9797629 116.433785,42.6293103 103.981132,42.6293103 Z M103.981132,39.3964031 C114.600258,39.3964031 123.19968,31.1837224 123.19968,21.0646552 C123.19968,10.9455879 114.600258,2.73290725 103.981132,2.73290725 C93.3620059,2.73290725 84.7625846,10.9455879 84.7625846,21.0646552 C84.7625846,31.1837224 93.3620059,39.3964031 103.981132,39.3964031 Z"></path>
                    <path stroke="#EAF0F5" stroke-width="1" d="M103.981132,41.6293103 C115.891531,41.6293103 125.537736,32.416923 125.537736,21.0646552 C125.537736,9.71238731 115.891531,0.5 103.981132,0.5 C92.070733,0.5 82.4245283,9.71238731 82.4245283,21.0646552 C82.4245283,32.416923 92.070733,41.6293103 103.981132,41.6293103 Z M103.981132,40.3964031 C92.8197522,40.3964031 83.7625846,31.7465623 83.7625846,21.0646552 C83.7625846,10.382748 92.8197522,1.73290725 103.981132,1.73290725 C115.142512,1.73290725 124.19968,10.382748 124.19968,21.0646552 C124.19968,31.7465623 115.142512,40.3964031 103.981132,40.3964031 Z" stroke-linejoin="square"></path>
                </g>
                <rect id="Rectangle-2" stroke="#3A7A98" fill="#0096E2" x="99.254717" y="26.5258621" width="9.45283019" height="18.7241379"></rect>
                <g id="Group-2" transform="translate(45.688679, 45.250000)">
                    <ellipse id="Oval-2" fill="#FFFFFF" cx="58.2924528" cy="57.7327586" rx="56.7169811" ry="56.1724138"></ellipse>
                    <ellipse id="Oval-2-Copy" fill="url(#linearGradient-4)" cx="58.2924528" cy="57.7327586" rx="47.2641509" ry="46.8103448"></ellipse>
                    <polygon id="Path-2" fill="#FCDD8B" points="58.8832547 60.4085062 58.8832547 5.00571482 84.5569815 7.84438982 97.8223301 19.7740184"></polygon>
                    <path d="M38.3882641,49.4281506 L90.0092604,49.656084 C91.3140527,49.6618454 92.3703626,50.7181736 92.3761014,52.022966 L92.3761014,52.022966 C92.3817752,53.3129919 91.3406021,54.3633641 90.0505761,54.369038 C90.0437138,54.3690681 90.0368514,54.3690681 90.029989,54.3690378 L38.4089927,54.1411044 C37.1042004,54.1353431 36.0478905,53.0790148 36.0421517,51.7742225 L36.0421517,51.7742225 C36.0364779,50.4841965 37.077651,49.4338243 38.367677,49.4281505 C38.3745393,49.4281203 38.3814017,49.4281203 38.3882641,49.4281506 Z" id="Rectangle" stroke="#3A7A98" fill="#F68796" stroke-linecap="round" stroke-linejoin="round" transform="translate(64.209127, 51.898594) rotate(-57.000000) translate(-64.209127, -51.898594) "></path>
                    <g id="Oval-3" stroke-linecap="round" stroke-linejoin="round">
                        <use fill="#73DAF3" fill-rule="evenodd" xlink:href="#path-5"></use>
                        <ellipse stroke="#3A7A98" stroke-width="1" cx="59.0801887" cy="60.0732759" rx="7.58962264" ry="7.52155172"></ellipse>
                        <ellipse stroke="#96EBFF" stroke-width="1" stroke-linejoin="square" cx="59.0801887" cy="60.0732759" rx="6.58962264" ry="6.52155172"></ellipse>
                    </g>
                    <g id="Group-3" transform="translate(106.488582, 12.647236) rotate(-315.000000) translate(-106.488582, -12.647236) translate(100.488582, 3.647236)" stroke="#3A7A98">
                        <rect id="Rectangle-5" fill="#0096E2" x="3.1509434" y="3.12068966" width="4.72641509" height="14.0431034"></rect>
                        <rect id="Rectangle-6" fill="#F68796" stroke-linecap="round" stroke-linejoin="round" x="-0.5" y="-0.5" width="12.0283019" height="8.80172414"></rect>
                    </g>
                    <path d="M58.2924528,115.965517 C25.8233518,115.965517 -0.5,89.8949087 -0.5,57.7327586 C-0.5,25.5706085 25.8233518,-0.5 58.2924528,-0.5 C90.7615539,-0.5 117.084906,25.5706085 117.084906,57.7327586 C117.084906,89.8949087 90.7615539,115.965517 58.2924528,115.965517 Z M58.2924528,108.724138 C86.7309813,108.724138 109.783019,85.8934342 109.783019,57.7327586 C109.783019,29.5720831 86.7309813,6.74137931 58.2924528,6.74137931 C29.8539244,6.74137931 6.80188679,29.5720831 6.80188679,57.7327586 C6.80188679,85.8934342 29.8539244,108.724138 58.2924528,108.724138 Z" id="Oval-2" stroke="#3A7A98" fill="#42B2EB" fill-rule="nonzero"></path>
                    <path d="M59.0801887,14.8232759 L59.0801887,21.0646552" id="Path-6" stroke="#AEC2C5" fill="#E9F2FB" stroke-linecap="round" stroke-linejoin="round"></path>
                    <path d="M59.0801887,95.1810345 L59.0801887,101.422414" id="Path-6-Copy" stroke="#AEC2C5" fill="#E9F2FB" stroke-linecap="round" stroke-linejoin="round"></path>
                    <path d="" id="Path-6" stroke="#AEC2C5" fill="#E9F2FB" stroke-linecap="round" stroke-linejoin="round" transform="translate(14.113208, 70.525862) rotate(-90.000000) translate(-14.113208, -70.525862) "></path>
                    <path d="" id="Path-6-Copy" stroke="#AEC2C5" fill="#E9F2FB" stroke-linecap="round" stroke-linejoin="round" transform="translate(107.396226, 70.525862) rotate(-90.000000) translate(-107.396226, -70.525862) "></path>
                    <path d="M30.6573804,26.4620167 L30.6876342,32.7336497" id="Path-6" stroke="#AEC2C5" fill="#E9F2FB" stroke-linecap="round" stroke-linejoin="round" transform="translate(30.672507, 29.597833) rotate(-45.000000) translate(-30.672507, -29.597833) "></path>
                    <path d="M88.0297566,83.2835327 L88.0600103,89.5551658" id="Path-6-Copy" stroke="#AEC2C5" fill="#E9F2FB" stroke-linecap="round" stroke-linejoin="round" transform="translate(88.044883, 86.419349) rotate(-45.000000) translate(-88.044883, -86.419349) "></path>
                    <path d="M30.6876342,82.7318675 L30.6573804,89.0035006" id="Path-6" stroke="#AEC2C5" fill="#E9F2FB" stroke-linecap="round" stroke-linejoin="round" transform="translate(30.672507, 85.867684) rotate(-135.000000) translate(-30.672507, -85.867684) "></path>
                    <path d="M88.0600103,25.9103515 L88.0297566,32.1819845" id="Path-6-Copy" stroke="#AEC2C5" fill="#E9F2FB" stroke-linecap="round" stroke-linejoin="round" transform="translate(88.044883, 29.046168) rotate(-135.000000) translate(-88.044883, -29.046168) "></path>
                </g>
                <ellipse id="Oval" fill="#D9E6E8" cx="83.5" cy="176.318966" rx="83.5" ry="4.68103448"></ellipse>
                <g id="Rectangle-3" stroke-linecap="round" stroke-linejoin="round">
                    <use fill="#FFD250" fill-rule="evenodd" xlink:href="#path-6"></use>
                    <rect stroke="#3A7A98" stroke-width="1" x="95.6037736" y="19.7844828" width="16.754717" height="13.4827586"></rect>
                    <rect stroke="#FFE496" stroke-width="1" stroke-linejoin="square" x="96.6037736" y="20.7844828" width="14.754717" height="11.4827586"></rect>
                </g>
                <rect id="Rectangle-4" fill="#FFC51F" x="100.830189" y="23.4051724" width="1.5754717" height="6.24137931" rx="0.787735849"></rect>
                <rect id="Rectangle-4-Copy" fill="#FFC51F" x="105.556604" y="23.4051724" width="1.5754717" height="6.24137931" rx="0.787735849"></rect>
            </g>
        </g>
        <path d="M127.882215,73.2790095 C127.606971,73.3369225 127.336321,73.6097196 127.27898,73.8822449 L126.709447,76.589085 C126.593764,77.1388923 126.405397,77.1350476 126.290524,76.589085 L125.72099,73.8822449 C125.663078,73.6070002 125.39028,73.3363503 125.117755,73.2790095 L122.410915,72.7094761 C121.861108,72.5937938 121.864952,72.4054267 122.410915,72.2905533 L125.117755,71.72102 C125.393,71.663107 125.663703,71.3900553 125.720643,71.1194361 L126.290545,68.4108441 C126.406216,67.8610922 126.594573,67.8649819 126.709447,68.4109444 L127.27898,71.1177845 C127.336893,71.3930293 127.60969,71.6636792 127.882215,71.72102 L130.589056,72.2905533 C131.138863,72.4062357 131.135018,72.5946027 130.589056,72.7094761 L127.882215,73.2790095 Z" id="Star-4" fill="#EBF6F8"></path>
        <path d="M211.882215,136.27901 C211.606971,136.336922 211.336321,136.60972 211.27898,136.882245 L210.709447,139.589085 C210.593764,140.138892 210.405397,140.135048 210.290524,139.589085 L209.72099,136.882245 C209.663078,136.607 209.39028,136.33635 209.117755,136.27901 L206.410915,135.709476 C205.861108,135.593794 205.864952,135.405427 206.410915,135.290553 L209.117755,134.72102 C209.393,134.663107 209.663703,134.390055 209.720643,134.119436 L210.290545,131.410844 C210.406216,130.861092 210.594573,130.864982 210.709447,131.410944 L211.27898,134.117785 C211.336893,134.393029 211.60969,134.663679 211.882215,134.72102 L214.589056,135.290553 C215.138863,135.406236 215.135018,135.594603 214.589056,135.709476 L211.882215,136.27901 Z" id="Star-4-Copy" fill="#EBF6F8"></path>
        <rect id="Rectangle-10" x="-7" y="30" width="300" height="169"></rect>
    </g>
</svg>