<?xml version="1.0" encoding="utf-8"?>
<!-- Generator: Adobe Illustrator 24.2.3, SVG Export Plug-In . SVG Version: 6.00 Build 0)  -->
<svg version="1.1" xmlns="http://www.w3.org/2000/svg" xmlns:xlink="http://www.w3.org/1999/xlink" x="0px" y="0px"
	 viewBox="0 0 1920 1655" style="enable-background:new 0 0 1920 1655;" xml:space="preserve">
<style type="text/css">
	.st0{fill:#2F7EB2;}
	.st1{fill:none;stroke:#2F7EB2;stroke-width:0.75;stroke-miterlimit:10;}
	.st2{display:none;}
	.st3{display:inline;opacity:0.3;fill:#2F7EB2;}
	.st4{opacity:0.3;}
	.st5{fill:none;stroke:#2F7EB2;stroke-miterlimit:10;}
</style>
<symbol  id="circle-1" viewBox="-12.3 -12.3 24.5 24.5">
	<path class="st0" d="M1.8,7.5c-4.2,1-8.4-1.6-9.3-5.7c-1-4.2,1.6-8.4,5.7-9.3c4.2-1,8.4,1.6,9.3,5.7S6,6.6,1.8,7.5z"/>
	<path class="st1" d="M2.8,11.6C-3.6,13.1-10,9.1-11.6,2.8C-13.1-3.6-9.1-10-2.8-11.6C3.6-13.1,10-9.1,11.6-2.8S9.1,10,2.8,11.6z"/>
</symbol>
<symbol  id="circle-2" viewBox="-16.5 -16.5 32.9 32.9">
	<path class="st0" d="M1.8,7.5c-4.2,1-8.4-1.6-9.3-5.7c-1-4.2,1.6-8.4,5.7-9.3c4.2-1,8.4,1.6,9.3,5.7S6,6.6,1.8,7.5z"/>
	<path class="st1" d="M2.8,11.6C-3.6,13.1-10,9.1-11.6,2.8C-13.1-3.6-9.1-10-2.8-11.6C3.6-13.1,10-9.1,11.6-2.8S9.1,10,2.8,11.6z"/>
	<path class="st1" d="M3.7,15.7c-8.6,2.1-17.3-3.3-19.4-11.9c-2.1-8.6,3.3-17.3,11.9-19.4c8.6-2.1,17.3,3.3,19.4,11.9
		S12.4,13.6,3.7,15.7z"/>
</symbol>
<g id="Layer_1" class="st2">
	<path class="st3" d="M181.7,3.6c-3.2-1.7-7.1-0.5-8.8,2.7c-1.7,3.2-0.5,7.1,2.7,8.8c0.4,0.2,0.8,0.4,1.2,0.5l-11.1,48.5
		c-4.2-0.9-8.6,1-10.6,5c-1.8,3.5-1.3,7.6,1,10.5l-79.6,65.5c-1.1-1.2-2.4-2.3-3.9-3.1c-1.4-0.7-2.8-1.2-4.3-1.4l10.5-78
		c2.9,0.8,6.1-0.5,7.5-3.2c1.7-3.2,0.5-7.1-2.7-8.8c-3.2-1.7-7.1-0.4-8.8,2.7c-0.4,0.7-0.6,1.4-0.7,2.1l-123.2-7.3
		c0-2.3-1.3-4.6-3.5-5.7c-3.2-1.7-7.1-0.5-8.8,2.7c-1.7,3.2-0.5,7.1,2.7,8.8c1.7,0.9,3.7,1,5.4,0.3l33.6,73.3c-1.7,0.9-3.1,2.3-4,4
		c-2.5,4.8-0.7,10.6,4.1,13.1c1.2,0.6,2.5,1,3.8,1.1l-0.8,79.4c-4.9,0.1-9.6,2.8-12,7.4c-3.6,6.8-1,15.2,5.8,18.8
		c6.7,3.5,15.1,1,18.7-5.7L79.9,288c-3.1,6.7-0.4,14.7,6.1,18.1c0.6,0.3,1.2,0.6,1.8,0.8l-33,103c-2.9-0.8-6,0.5-7.5,3.3
		c-1.7,3.2-0.5,7.1,2.7,8.8c3.2,1.7,7.1,0.5,8.8-2.7c0.8-1.5,0.9-3.2,0.5-4.7l93.9-33c0.4,0.9,1.2,1.8,2.1,2.3
		c2.4,1.2,5.3,0.3,6.5-2c1.2-2.2,0.4-4.9-1.6-6.2l40.1-73.8c4.7,2.3,10.4,0.5,12.9-4.2c2.5-4.8,0.7-10.6-4.1-13.1
		c-2.6-1.4-5.5-1.4-8-0.5l-44.4-101.6c2.3-1.1,4.3-2.9,5.5-5.3c2.1-4,1.8-8.6-0.4-12.1l85.2-56.9c0.8,1.1,1.9,2,3.2,2.7
		c4.8,2.5,10.6,0.7,13.1-4.1c2.5-4.8,0.7-10.6-4.1-13.1c-3.3-1.7-7.2-1.4-10.1,0.6l-66.1-79.9c0.5-0.5,1-1.1,1.3-1.7
		C186.1,9.2,184.9,5.3,181.7,3.6z M155.4,69.4c2-3.8,6.2-5.6,10.2-4.8l-0.6,2.7c-2.8-0.6-5.7,0.7-7.1,3.4c-1.2,2.3-0.9,5.1,0.6,7
		l-2.1,1.8C154.1,76.6,153.6,72.7,155.4,69.4z M156.9,80.1l2.1-1.8c0.5,0.5,1,0.8,1.6,1.2c3.2,1.7,7.1,0.5,8.8-2.7
		c0.1-0.2,0.2-0.5,0.3-0.7l2.7,0.8c-0.1,0.4-0.3,0.8-0.5,1.2c-2.4,4.5-8,6.3-12.6,3.9C158.4,81.4,157.5,80.8,156.9,80.1z M170,75.2
		c0.7-2.8-0.6-5.9-3.3-7.3c-0.3-0.2-0.6-0.3-0.9-0.4l0.6-2.7c0.5,0.2,1.1,0.4,1.6,0.7c3.9,2,5.7,6.5,4.7,10.6L170,75.2z M156.5,80.3
		c0.7,0.8,1.6,1.4,2.6,2c4.8,2.5,10.6,0.7,13.1-4.1c0.2-0.4,0.4-0.8,0.5-1.3l72.6,22.4c-0.5,1.6-0.5,3.3-0.1,4.9L79.2,150.2
		c-0.5-1.6-1.3-3.1-2.3-4.4L156.5,80.3z M249.2,105.5l-2.3,1.5c-0.4-0.6-0.7-1.3-1-2l2.7-0.7C248.8,104.7,249,105.1,249.2,105.5z
		 M249,99c-0.1,0.2-0.2,0.4-0.3,0.6l-2.7-0.8c0.1-0.4,0.3-0.7,0.5-1c0.6-1.1,1.4-2.1,2.3-2.8l1.8,2.1C249.9,97.5,249.4,98.2,249,99z
		 M248.4,100.3c-0.3,1-0.3,2.1-0.1,3.1l-2.7,0.7c-0.4-1.5-0.4-3.1,0.1-4.7L248.4,100.3z M199.9,300.9c-2.7-1.6-4.3-4.5-4.5-7.5
		l2.8,0c0.1,2,1.2,3.9,3,5.1L199.9,300.9z M155.2,375.5l-53.9-70.9c1.4-1.2,2.7-2.6,3.6-4.3c1-2,1.5-4.1,1.6-6.1l88.6-0.6
		c0.2,3.1,1.8,6.1,4.7,7.8l-40.1,73.8C158.1,374.5,156.5,374.6,155.2,375.5z M88.2,302c-4.4-2.3-6.1-7.6-4.2-12l2.5,1.2
		c-1.3,3.1-0.1,6.7,3,8.3c0.2,0.1,0.4,0.2,0.6,0.3l-0.8,2.6C88.9,302.4,88.5,302.2,88.2,302z M-7.7,243.2c1.6-3.7,0.8-7.8-1.8-10.6
		l2.6-2.7c3.8,3.9,4.9,9.9,2.5,15L-7.7,243.2z M-7.5,229.2l-2.6,2.7c-0.6-0.5-1.2-1-1.9-1.4c-1.3-0.7-2.7-1-4-1.1l0-3.8
		c1.9,0.1,3.9,0.6,5.7,1.5C-9.3,227.8-8.3,228.5-7.5,229.2z M-12.2,231c0.7,0.4,1.3,0.8,1.8,1.3l-1.9,2c-0.4-0.3-0.8-0.6-1.2-0.8
		c-0.8-0.4-1.7-0.7-2.6-0.7l0-2.8C-14.8,230-13.5,230.3-12.2,231z M-11.7,234.8l1.9-2c2.5,2.7,3.3,6.7,1.7,10.2l-2.5-1.2
		C-9.6,239.4-10.1,236.7-11.7,234.8z M-16.9,232.7c-2.2,0.1-4.3,1.4-5.4,3.5c-1.7,3.2-0.5,7.1,2.7,8.8c3.1,1.6,6.9,0.5,8.7-2.5
		l2.5,1.2c-2.5,4.4-8,6.1-12.5,3.7c-4.5-2.4-6.3-8-3.9-12.6c1.6-3.1,4.7-4.8,7.9-5L-16.9,232.7z M-6.6,229.5l63.1-65
		c0.9,0.8,1.9,1.5,3,2.1c2.8,1.4,5.8,1.9,8.6,1.4l21.4,112.1c-3.8,0.8-7.2,3.3-9.2,7L-4,245C-1.5,239.7-2.7,233.6-6.6,229.5z
		 M72.8,148.1l-2.1,1.8c-0.5-0.5-1-0.9-1.7-1.3c-0.6-0.3-1.2-0.5-1.8-0.6l0.4-2.8c0.9,0.2,1.9,0.5,2.7,0.9
		C71.3,146.6,72.1,147.3,72.8,148.1z M61.6,162.6c-0.7-0.4-1.3-0.8-1.9-1.3l1.9-2c0.4,0.3,0.8,0.6,1.3,0.9c1.2,0.6,2.5,0.9,3.8,0.7
		l0.5,2.7C65.4,163.9,63.4,163.6,61.6,162.6z M61.1,158.7l-1.9,2c-2-2.2-2.9-5.3-2.3-8.2l2.7,0.6C59.1,155.1,59.7,157.2,61.1,158.7z
		 M67.6,160.7c1-0.3,1.9-0.7,2.7-1.4l2,2c-1.2,1.1-2.6,1.8-4.2,2.2L67.6,160.7z M70.9,158.7c0.3-0.4,0.6-0.8,0.9-1.2
		c0.2-0.5,0.4-0.9,0.5-1.4l2.7,0.5c-0.2,0.7-0.4,1.5-0.8,2.2c-0.4,0.7-0.8,1.3-1.4,1.9L70.9,158.7z M72.4,155.2
		c0.1-0.7,0.1-1.5-0.1-2.2l2.7-0.7c0.3,1.1,0.3,2.3,0.2,3.5L72.4,155.2z M72.1,152.2c-0.2-0.6-0.5-1.1-0.9-1.7l2.1-1.8
		c0.6,0.8,1.1,1.7,1.4,2.7L72.1,152.2z M66.4,147.9c-2.5-0.1-4.9,1.1-6.2,3.5c-0.2,0.3-0.3,0.6-0.4,0.9l-2.7-0.6
		c0.2-0.5,0.4-1.1,0.7-1.6c1.8-3.4,5.4-5.2,9-4.9L66.4,147.9z M57.3,149.8c-0.3,0.6-0.5,1.1-0.7,1.7l-3.7-0.8c0.3-0.9,0.6-1.8,1-2.6
		c2.6-5,8-7.7,13.3-7.1l-0.5,3.7C63,144.4,59.2,146.3,57.3,149.8z M56.4,152.4c-0.7,3.1,0.3,6.3,2.4,8.6l-2.6,2.7
		c-3.1-3.2-4.4-7.8-3.4-12.1L56.4,152.4z M59.4,161.6c0.6,0.5,1.3,1,2,1.4c1.9,1,3.9,1.3,5.9,1l0.7,3.7c-2.8,0.4-5.7,0-8.4-1.4
		c-1.1-0.6-2-1.3-2.9-2L59.4,161.6z M89.6,280.6l0.7,3.7c-2.6,0.6-4.9,2.3-6.3,4.7l-3.4-1.7C82.6,283.8,85.9,281.5,89.6,280.6z
		 M86.9,290.5l-2.5-1.2c1.3-2.4,3.5-3.9,6-4.5l0.5,2.7C89.2,287.9,87.8,288.9,86.9,290.5z M98.3,296.8c0.4-0.9,0.7-1.8,0.7-2.7
		l2.8,0c0,1.3-0.4,2.7-1.1,4c-0.6,1.1-1.4,2.1-2.3,2.8l-1.7-2.2C97.4,298.2,97.9,297.6,98.3,296.8z M99,293.3
		c-0.2-2.2-1.4-4.2-3.5-5.3c-1.2-0.6-2.6-0.9-3.8-0.7l-0.5-2.7c1.9-0.3,3.9,0,5.7,1c3,1.6,4.8,4.6,5,7.8L99,293.3z M97,285.2
		c-1.9-1-4-1.3-5.9-1l-0.7-3.7c2.8-0.4,5.7,0,8.4,1.4c4.4,2.3,7,6.8,7.2,11.4l-3.8,0C102,290,100.2,286.8,97,285.2z M90.9,300.1
		c1.8,0.5,3.7,0.1,5.2-0.9l1.7,2.2c-2.2,1.5-5.1,2.1-7.7,1.3L90.9,300.1z M98.1,301.8l2.3,3c-3.3,2.3-7.5,3.1-11.5,2l1.1-3.6
		C92.7,303.9,95.7,303.4,98.1,301.8z M98.7,301.3c1-0.8,1.8-1.8,2.4-3c0.7-1.3,1.1-2.8,1.1-4.2l3.8,0c0,2-0.5,4.1-1.5,6
		c-0.9,1.7-2.1,3.1-3.4,4.2L98.7,301.3z M200.4,288.1l-2-2c0.7-0.6,1.4-1.1,2.2-1.5l1.1,2.5C201.2,287.4,200.8,287.7,200.4,288.1z
		 M199.8,288.7c-0.3,0.4-0.6,0.8-0.9,1.3c-0.4,0.9-0.7,1.8-0.7,2.7l-2.8,0c0-1.3,0.4-2.7,1.1-4c0.4-0.7,0.8-1.4,1.4-1.9L199.8,288.7
		z M196.1,288.4c-0.7,1.3-1.1,2.8-1.1,4.2l-88.6,0.6c-0.2-4.8-2.9-9.4-7.4-11.8c-2.8-1.5-5.8-1.9-8.7-1.4L68.9,167.9
		c2.4-0.5,4.7-1.7,6.6-3.5l122,121.9C197,287,196.5,287.7,196.1,288.4z M68.9,167.5l-0.7-3.7c1.6-0.4,3.1-1.2,4.4-2.3l2.7,2.7
		C73.4,165.9,71.2,167,68.9,167.5z M73.1,160.9c0.5-0.6,1-1.3,1.4-2c0.4-0.7,0.7-1.5,0.8-2.3l3.7,0.7c-0.3,1.1-0.6,2.2-1.2,3.3
		c-0.6,1.1-1.3,2.1-2.1,2.9L73.1,160.9z M75.6,155.8c0.2-1.2,0.1-2.5-0.2-3.7l3.6-1c0.4,1.8,0.5,3.6,0.2,5.4L75.6,155.8z
		 M75.2,151.3c-0.3-1-0.8-2-1.5-2.8l2.9-2.4c1,1.3,1.7,2.7,2.2,4.2L75.2,151.3z M72.2,142.4c1.5,0.8,2.7,1.8,3.8,3l-2.9,2.4
		c-0.7-0.8-1.6-1.5-2.6-2.1c-0.9-0.5-1.9-0.8-2.9-1l0.5-3.7C69.5,141.3,70.9,141.7,72.2,142.4z M67.3,140.5
		c-5.5-0.5-11,2.2-13.7,7.4c-0.5,0.9-0.8,1.8-1.1,2.7l-58.3-12.8c0.5-2.8-0.3-5.6-2.1-7.8L75,60.2c0.6,0.8,1.4,1.5,2.3,2
		c0.2,0.1,0.3,0.1,0.5,0.2L67.3,140.5z M-8.7,129.7l-2.1,1.8c-0.4-0.4-0.9-0.8-1.5-1.1c-1.8-0.9-3.8-1-5.5-0.3l-1.2-2.5
		c2.5-1.1,5.4-1,8,0.3C-10.1,128.5-9.3,129-8.7,129.7z M-9.5,139.3c0.2-0.4,0.4-0.9,0.5-1.3l2.7,0.6c-0.2,0.7-0.4,1.4-0.8,2
		c-1.7,3.1-4.9,4.9-8.2,5l0-2.8C-12.9,142.7-10.7,141.5-9.5,139.3z M-8.8,137.1c0.3-1.8-0.2-3.6-1.4-5l2.1-1.8
		c1.7,2.1,2.4,4.8,2,7.4L-8.8,137.1z M-52.7,54c1.1-0.6,2.1-1.5,2.7-2.7c0.4-0.7,0.6-1.5,0.7-2.2l123.2,7.3c0,1.1,0.2,2.2,0.7,3.1
		l-82.9,70c-0.7-0.7-1.5-1.3-2.4-1.8c-2.7-1.4-5.8-1.4-8.4-0.3L-52.7,54z M-19.6,144.5c-4.5-2.4-6.3-8-3.9-12.6
		c0.9-1.7,2.2-3,3.8-3.9l1.2,2.5c-1,0.6-1.9,1.5-2.5,2.6c-1.7,3.2-0.5,7.1,2.7,8.8c0.7,0.4,1.5,0.6,2.3,0.7l0,2.8
		C-17.3,145.4-18.5,145.1-19.6,144.5z M-15.2,146c3.5,0,6.8-1.9,8.5-5.2c0.4-0.7,0.6-1.4,0.8-2.1l58.3,12.8c-1,4.5,0.4,9.2,3.5,12.5
		l-63.1,65c-0.9-0.8-1.8-1.5-2.9-2.1c-1.9-1-3.9-1.5-5.9-1.6L-15.2,146z M-22.9,251.1c-6.6-3.5-9.1-11.6-5.7-18.2
		c2.4-4.5,6.9-7.1,11.6-7.2l0,3.8c-3.4,0.1-6.6,2-8.3,5.2c-2.5,4.8-0.7,10.6,4.1,13.1c4.7,2.5,10.5,0.7,13-3.9l3.4,1.7
		C-8.2,252.1-16.3,254.6-22.9,251.1z M86.2,305.7c-6.4-3.4-8.9-11.1-6-17.6l3.4,1.7c-2.1,4.6-0.2,10.2,4.3,12.6
		c0.4,0.2,0.8,0.4,1.2,0.5l-1.1,3.6C87.4,306.3,86.8,306,86.2,305.7z M59.2,413.7c-0.6-1.4-1.6-2.6-3-3.3c-0.2-0.1-0.4-0.2-0.5-0.2
		l33-103c4.1,1.2,8.5,0.4,11.9-2.1l53.9,70.9c-0.4,0.4-0.8,0.8-1,1.3c-0.6,1.1-0.7,2.3-0.4,3.4L59.2,413.7z M209,284.7
		c4.5,2.4,6.3,8,3.9,12.6c-2.3,4.5-7.8,6.2-12.3,4l1.3-2.4c3.1,1.5,6.9,0.2,8.5-2.9c1.7-3.2,0.5-7.1-2.7-8.8c-1.7-0.9-3.6-1-5.3-0.4
		l-1.1-2.5C203.8,283.4,206.6,283.4,209,284.7z M200.4,284.2c-0.8,0.4-1.6,0.9-2.3,1.6l-122-121.9c0.8-0.9,1.6-1.9,2.2-3
		c0.6-1.1,1-2.3,1.2-3.4l59.9,11.9c-0.8,5.1,1.6,10.3,6.4,12.8c3.3,1.7,7,1.8,10.2,0.5L200.4,284.2z M161,164.5l-2.9,1.9
		c-0.7-1-1.6-1.8-2.8-2.4c-4-2.1-9-0.6-11.1,3.4c-0.3,0.6-0.5,1.2-0.7,1.8l-3.4-0.7c0.2-0.9,0.5-1.9,1-2.8c3-5.7,10.1-7.9,15.8-4.9
		C158.6,161.8,160,163.1,161,164.5z M143.4,170.1c-0.5,3.3,1.1,6.8,4.3,8.5c2.2,1.1,4.6,1.2,6.7,0.4l1.4,3.2
		c-3.1,1.2-6.6,1.1-9.7-0.5c-4.6-2.4-6.9-7.4-6.1-12.2L143.4,170.1z M161.9,176.8c-1.2,2.3-3.1,4-5.3,5.1l-1.4-3.2
		c1.5-0.7,2.8-1.9,3.6-3.5c1.4-2.6,1.2-5.6-0.2-8l2.9-1.9C163.6,168.6,163.9,173,161.9,176.8z M161.4,164.2
		c-1.1-1.5-2.5-2.8-4.2-3.7c-6-3.1-13.4-0.8-16.5,5.1c-0.5,0.9-0.8,1.9-1.1,2.9l-59.9-11.9c0.3-1.9,0.2-3.8-0.2-5.6l166.1-45.9
		c0.3,0.8,0.6,1.5,1,2.2L161.4,164.2z M259.1,93.8c4.5,2.4,6.3,8,3.9,12.6c-2.4,4.5-8,6.3-12.6,3.9c-1.2-0.6-2.2-1.5-3-2.5l2.3-1.5
		c0.5,0.6,1.2,1.2,2,1.6c3.2,1.7,7.1,0.5,8.8-2.7c1.7-3.2,0.5-7.1-2.7-8.8c-2.1-1.1-4.6-0.9-6.5,0.3l-1.8-2.2
		C252.2,92.5,255.9,92.1,259.1,93.8z M248.5,94.5c-1,0.8-1.8,1.8-2.4,2.9c-0.2,0.4-0.3,0.7-0.5,1.1L173,76.1
		c1.1-4.3-0.8-8.9-4.9-11.1c-0.6-0.3-1.1-0.5-1.7-0.7l11.1-48.5c1.7,0.3,3.5-0.1,4.9-1.2L248.5,94.5z"/>
</g>
<g id="Layer_2">
	<g class="st4">
		<path class="st0" d="M137.4,413.9c-1.9-2-1.8-5.2,0.2-7.2c2-1.9,5.2-1.8,7.2,0.2c1.9,2,1.8,5.2-0.2,7.2
			C142.6,416,139.4,415.9,137.4,413.9z"/>
		<path class="st0" d="M19.2,416.2c-2.6-2.8-2.5-7.1,0.3-9.7c2.8-2.6,7.1-2.5,9.7,0.3c2.6,2.8,2.5,7.1-0.3,9.7
			C26.2,419,21.8,418.9,19.2,416.2z"/>
		<path class="st0" d="M35.3,11.6c-2.6-2.8-2.5-7.1,0.3-9.7s7.1-2.5,9.7,0.3c2.6,2.8,2.5,7.1-0.3,9.7S37.9,14.4,35.3,11.6z"/>
		<path class="st0" d="M282.8,52.5c-2.6-2.8-2.5-7.1,0.3-9.7c2.8-2.6,7.1-2.5,9.7,0.3s2.5,7.1-0.3,9.7
			C289.7,55.4,285.4,55.3,282.8,52.5z"/>
		<path class="st0" d="M168.6,66.1c-2.6-2.8-2.5-7.1,0.3-9.7c2.8-2.6,7.1-2.5,9.7,0.3c2.6,2.8,2.5,7.1-0.3,9.7
			C175.6,69,171.3,68.8,168.6,66.1z"/>
		<path class="st0" d="M327.3,170.9c-2.6-2.8-2.5-7.1,0.3-9.7c2.8-2.6,7.1-2.5,9.7,0.3c2.6,2.8,2.5,7.1-0.3,9.7
			C334.3,173.8,330,173.6,327.3,170.9z"/>
		<path class="st0" d="M325.3,158.7c4.1-3.9,10.6-3.7,14.5,0.4c3.9,4.1,3.7,10.6-0.4,14.5c-4.1,3.9-10.6,3.7-14.5-0.4
			C321,169.1,321.2,162.6,325.3,158.7z M339.1,173.3c3.9-3.7,4.1-10,0.4-13.9c-3.7-3.9-10-4.1-13.9-0.4c-3.9,3.7-4.1,10-0.4,13.9
			C328.9,176.8,335.2,177,339.1,173.3z"/>
		<line class="st5" x1="50.7" y1="108.3" x2="172.4" y2="60.7"/>
		<polyline class="st5" points="125.9,154.2 50.7,108.3 14.7,211 		"/>
		<polyline class="st5" points="14.7,211 105.1,302.6 24.3,411.5 		"/>
		<line class="st5" x1="141.1" y1="410.4" x2="105.1" y2="302.6"/>
		<line class="st5" x1="141.1" y1="410.4" x2="217.5" y2="339.9"/>
		<line class="st5" x1="332.8" y1="166.3" x2="287.8" y2="47.7"/>
		<polyline class="st5" points="251.2,107 125.9,154.2 217.5,339.9 		"/>
		<line class="st5" x1="205.7" y1="200.3" x2="332.8" y2="166.3"/>
		<line class="st5" x1="125.9" y1="154.2" x2="332.8" y2="166.3"/>
		<line class="st5" x1="205.7" y1="200.3" x2="125.9" y2="154.2"/>
		<line class="st5" x1="14.7" y1="211" x2="125.9" y2="154.2"/>
		<line class="st5" x1="105.1" y1="302.6" x2="125.9" y2="154.2"/>
		<line class="st5" x1="24.3" y1="411.5" x2="141.1" y2="410.4"/>
		<line class="st5" x1="105.1" y1="302.6" x2="217.5" y2="339.9"/>
		<line class="st5" x1="205.7" y1="200.3" x2="217.5" y2="339.9"/>
		<line class="st5" x1="287.8" y1="47.7" x2="251.2" y2="107"/>
		<line class="st5" x1="125.9" y1="154.2" x2="172.4" y2="60.7"/>
		<line class="st5" x1="251.2" y1="107" x2="332.8" y2="166.3"/>
		<line class="st5" x1="40.3" y1="6.9" x2="50.7" y2="108.3"/>
		<line class="st5" x1="40.3" y1="6.9" x2="172.4" y2="60.7"/>
		
			<use xlink:href="#circle-2"  width="32.9" height="32.9" x="-16.5" y="-16.5" transform="matrix(0.4453 0.7688 -0.7688 0.4453 14.674 210.9841)" style="overflow:visible;"/>
		
			<use xlink:href="#circle-2"  width="32.9" height="32.9" x="-16.5" y="-16.5" transform="matrix(0.4453 0.7688 -0.7688 0.4453 104.4865 302.7033)" style="overflow:visible;"/>
		
			<use xlink:href="#circle-2"  width="32.9" height="32.9" x="-16.5" y="-16.5" transform="matrix(0.4453 0.7688 -0.7688 0.4453 125.9471 154.1554)" style="overflow:visible;"/>
		
			<use xlink:href="#circle-1"  width="24.5" height="24.5" x="-12.3" y="-12.3" transform="matrix(0.4453 0.7688 -0.7688 0.4453 251.1698 107.0351)" style="overflow:visible;"/>
		
			<use xlink:href="#circle-1"  width="24.5" height="24.5" x="-12.3" y="-12.3" transform="matrix(0.4453 0.7688 -0.7688 0.4453 206.2061 200.0837)" style="overflow:visible;"/>
		
			<use xlink:href="#circle-1"  width="24.5" height="24.5" x="-12.3" y="-12.3" transform="matrix(0.4453 0.7688 -0.7688 0.4453 217.1331 339.2057)" style="overflow:visible;"/>
		
			<use xlink:href="#circle-1"  width="24.5" height="24.5" x="-12.3" y="-12.3" transform="matrix(0.4453 0.7688 -0.7688 0.4453 51.4536 107.3907)" style="overflow:visible;"/>
	</g>
</g>
</svg>
