<svg xmlns="http://www.w3.org/2000/svg" xmlns:xlink="http://www.w3.org/1999/xlink" data-name="Layer 1" width="805.94744" height="415.26758" viewBox="0 0 805.94744 415.26758"><rect x="0.15277" y="177.53389" width="357.79467" height="229.14762" fill="#f2f2f2"/><rect x="10.38383" y="206.27472" width="337.33256" height="186.8504" fill="#fff"/><rect y="177.33105" width="357.79468" height="15.20043" fill="#6c63ff" style="&#10;    fill: #cacaca;&#10;"/><circle cx="11.29574" cy="185.10232" r="2.81728" fill="#fff"/><circle cx="21.98944" cy="185.10232" r="2.81728" fill="#fff"/><circle cx="32.68313" cy="185.10232" r="2.81728" fill="#fff"/><rect x="41.03512" y="225.66196" width="86.67858" height="148.0759" fill="#f2f2f2"/><rect x="142.67606" y="225.66196" width="72.23215" height="40.75957" fill="#6c63ff" style="&#10;    fill: #cbf0f4;&#10;"/><rect x="142.67606" y="277.7723" width="72.23215" height="43.85523" fill="#f2f2f2"/><rect x="142.67606" y="332.9783" width="72.23215" height="40.75957" fill="#f2f2f2"/><rect x="230.38653" y="225.66196" width="86.67858" height="64.53067" fill="#f2f2f2"/><rect x="230.38653" y="309.2072" width="86.67858" height="64.53067" fill="#f2f2f2"/><rect x="448.15277" y="177.53389" width="357.79467" height="229.14762" fill="#f2f2f2"/><rect x="458.38383" y="206.27472" width="337.33256" height="186.8504" fill="#fff"/><rect x="448" y="177.33105" width="357.79468" height="15.20043" fill="#6c63ff" style="&#10;    fill: #cacaca;&#10;"/><circle cx="459.29574" cy="185.10232" r="2.81728" fill="#fff"/><circle cx="469.98944" cy="185.10232" r="2.81728" fill="#fff"/><circle cx="480.68313" cy="185.10232" r="2.81728" fill="#fff"/><rect x="678.30808" y="225.66197" width="86.67858" height="148.0759" fill="#f2f2f2"/><rect x="489.11328" y="225.65938" width="174.83378" height="40.75957" fill="#6c63ff" style="&#10;    fill: #cbf0f4;&#10;"/><rect x="489.11328" y="277.76971" width="174.83378" height="43.85523" fill="#f2f2f2"/><rect x="489.11328" y="332.97571" width="174.83378" height="40.75957" fill="#f2f2f2"/><rect x="398.94744" width="2" height="109.26758" fill="#ccc"/><polygon points="600.947 177.268 598.947 177.268 598.947 110.268 200.947 110.268 200.947 177.268 198.947 177.268 198.947 108.268 600.947 108.268 600.947 177.268" fill="#ccc"/></svg>