<svg width="2500" height="650" viewBox="0 0 2500 650" fill="none" xmlns="http://www.w3.org/2000/svg">
<g clip-path="url(#clip0)">
<path d="M0 -0.00146484H2500V649.999H0V-0.00146484Z" fill="rgba(250,250,250,0)"/>
<path fill-rule="evenodd" clip-rule="evenodd" d="M644 11.4808V0H646V11.4808C646 38.5012 667.938 60.4056 695 60.4056H1246.5C1274.67 60.4056 1297.5 83.204 1297.5 111.327V352.956C1297.5 379.976 1319.44 401.88 1346.5 401.88H2083V304.031C2083 275.907 2105.83 253.109 2134 253.109H2219C2247.17 253.109 2270 275.907 2270 304.031V352.956C2270 381.079 2247.17 403.877 2219 403.877H2085V650H2083V403.877H1346.5C1318.33 403.877 1295.5 381.079 1295.5 352.956V111.327C1295.5 84.3069 1273.56 62.4025 1246.5 62.4025H695C666.833 62.4025 644 39.6041 644 11.4808ZM2085 401.88H2219C2246.06 401.88 2268 379.976 2268 352.956V304.031C2268 277.01 2246.06 255.106 2219 255.106H2134C2106.94 255.106 2085 277.01 2085 304.031V401.88Z" fill="#E6E6E6"/>
<path fill-rule="evenodd" clip-rule="evenodd" d="M125 -0.5V244.623C125 271.643 146.938 293.548 174 293.548H388C416.167 293.548 439 316.346 439 344.469V551.651C439 578.671 460.938 600.575 488 600.575H814C840.234 600.575 861.552 621.589 861.993 647.677C861.998 647.951 862 649.725 862 650H860C860 649.725 859.998 647.951 859.993 647.677C859.552 622.692 839.129 602.572 814 602.572H488C459.833 602.572 437 579.774 437 551.651V344.469C437 317.449 415.062 295.545 388 295.545H174C145.833 295.545 123 272.746 123 244.623V-0.5H125Z" fill="#E6E6E6"/>
<path fill-rule="evenodd" clip-rule="evenodd" d="M1584 526.189V-1H1586V526.189C1586 553.209 1607.94 575.114 1635 575.114H1752C1780.17 575.114 1803 597.912 1803 626.035V650H1801V626.035C1801 599.015 1779.06 577.111 1752 577.111H1635C1606.83 577.111 1584 554.312 1584 526.189Z" fill="#E6E6E6"/>
<path fill-rule="evenodd" clip-rule="evenodd" d="M1296 236.135H1866.5V238.132H1296V236.135Z" fill="#E6E6E6"/>
<path d="M1271 222.157C1271 216.642 1275.48 212.172 1281 212.172H1311C1316.52 212.172 1321 216.642 1321 222.157V252.111C1321 257.625 1316.52 262.095 1311 262.095H1281C1275.48 262.095 1271 257.625 1271 252.111V222.157Z" fill="white"/>
<path d="M1852 222.157C1852 216.642 1856.48 212.172 1862 212.172H1892C1897.52 212.172 1902 216.642 1902 222.157V252.111C1902 257.625 1897.52 262.095 1892 262.095H1862C1856.48 262.095 1852 257.625 1852 252.111V222.157Z" fill="white"/>
<path d="M2059 387.902C2059 382.387 2063.48 377.917 2069 377.917H2099C2104.52 377.917 2109 382.387 2109 387.902V417.856C2109 423.37 2104.52 427.84 2099 427.84H2069C2063.48 427.84 2059 423.37 2059 417.856V387.902Z" fill="white"/>
<path d="M684 586.596C684 581.082 688.477 576.611 694 576.611H724C729.523 576.611 734 581.082 734 586.596V616.55C734 622.064 729.523 626.535 724 626.535H694C688.477 626.535 684 622.064 684 616.55V586.596Z" fill="white"/>
<path d="M413 478.762C413 473.248 417.477 468.777 423 468.777H453C458.523 468.777 463 473.248 463 478.762V508.716C463 514.23 458.523 518.701 453 518.701H423C417.477 518.701 413 514.23 413 508.716V478.762Z" fill="white"/>
<path d="M280 280.068C280 274.553 284.477 270.083 290 270.083H320C325.523 270.083 330 274.553 330 280.068V310.022C330 315.536 325.523 320.006 320 320.006H290C284.477 320.006 280 315.536 280 310.022V280.068Z" fill="white"/>
<path d="M1560 222.157C1560 216.642 1564.48 212.172 1570 212.172H1600C1605.52 212.172 1610 216.642 1610 222.157V252.111C1610 257.625 1605.52 262.095 1600 262.095H1570C1564.48 262.095 1560 257.625 1560 252.111V222.157Z" fill="white"/>
<path d="M1560 387.902C1560 382.387 1564.48 377.917 1570 377.917H1600C1605.52 377.917 1610 382.387 1610 387.902V417.856C1610 423.37 1605.52 427.84 1600 427.84H1570C1564.48 427.84 1560 423.37 1560 417.856V387.902Z" fill="white"/>
<path d="M1708 561.635C1708 556.12 1712.48 551.65 1718 551.65H1748C1753.52 551.65 1758 556.12 1758 561.635V591.588C1758 597.103 1753.52 601.573 1748 601.573H1718C1712.48 601.573 1708 597.103 1708 591.588V561.635Z" fill="white"/>
<path d="M755 46.427C755 40.9127 759.477 36.4424 765 36.4424H795C800.523 36.4424 805 40.9127 805 46.427V76.3809C805 81.8953 800.523 86.3656 795 86.3656H765C759.477 86.3656 755 81.8953 755 76.3809V46.427Z" fill="white"/>
<path fill-rule="evenodd" clip-rule="evenodd" d="M0 96.3502V0H2V96.3502C2 123.371 23.938 145.275 51 145.275H321C348.062 145.275 370 123.371 370 96.3502V0H372V96.3502C372 124.473 349.167 147.272 321 147.272H51C22.8335 147.272 0 124.473 0 96.3502Z" fill="#E6E6E6"/>
<path fill-rule="evenodd" clip-rule="evenodd" d="M112 650V550.154H114V650H112Z" fill="#E6E6E6"/>
<path fill-rule="evenodd" clip-rule="evenodd" d="M1969 -0.5V11.9808C1969 39.0012 1990.94 60.9055 2018 60.9055H2309C2337.17 60.9055 2360 83.7039 2360 111.827V650H2358V111.827C2358 84.8068 2336.06 62.9025 2309 62.9025H2018C1989.83 62.9025 1967 40.104 1967 11.9808V-0.5H1969Z" fill="#E6E6E6"/>
<path d="M2334 543.662C2334 538.148 2338.48 533.677 2344 533.677H2374C2379.52 533.677 2384 538.148 2384 543.662V573.616C2384 579.13 2379.52 583.601 2374 583.601H2344C2338.48 583.601 2334 579.13 2334 573.616V543.662Z" fill="white"/>
<path d="M2020 47.4256C2020 41.9112 2024.48 37.4409 2030 37.4409H2060C2065.52 37.4409 2070 41.9112 2070 47.4256V77.3795C2070 82.8938 2065.52 87.3641 2060 87.3641H2030C2024.48 87.3641 2020 82.8938 2020 77.3795V47.4256Z" fill="white"/>
<path d="M99 131.296C99 125.782 103.477 121.312 109 121.312H139C144.523 121.312 149 125.782 149 131.296V161.25C149 166.765 144.523 171.235 139 171.235H109C103.477 171.235 99 166.765 99 161.25V131.296Z" fill="white"/>
<path d="M87 528.685C87 523.171 91.4772 518.7 97 518.7H127C132.523 518.7 137 523.171 137 528.685V558.639C137 564.153 132.523 568.624 127 568.624H97C91.4772 568.624 87 564.153 87 558.639V528.685Z" fill="white"/>
<g opacity="0.5">
<path d="M1271 222.214C1271 216.7 1275.48 212.23 1281 212.23H1311C1316.52 212.23 1321 216.7 1321 222.214V252.168C1321 257.683 1316.52 262.153 1311 262.153H1281C1275.48 262.153 1271 257.683 1271 252.168V222.214Z" fill="url(#paint0_linear)"/>
<path d="M1852 222.214C1852 216.7 1856.48 212.23 1862 212.23H1892C1897.52 212.23 1902 216.7 1902 222.214V252.168C1902 257.683 1897.52 262.153 1892 262.153H1862C1856.48 262.153 1852 257.683 1852 252.168V222.214Z" fill="url(#paint1_linear)"/>
<path d="M2059 387.959C2059 382.445 2063.48 377.975 2069 377.975H2099C2104.52 377.975 2109 382.445 2109 387.959V417.913C2109 423.428 2104.52 427.898 2099 427.898H2069C2063.48 427.898 2059 423.428 2059 417.913V387.959Z" fill="url(#paint2_linear)"/>
<path d="M684 586.654C684 581.139 688.477 576.669 694 576.669H724C729.523 576.669 734 581.139 734 586.654V616.608C734 622.122 729.523 626.592 724 626.592H694C688.477 626.592 684 622.122 684 616.608V586.654Z" fill="url(#paint3_linear)"/>
<path d="M413 478.82C413 473.305 417.477 468.835 423 468.835H453C458.523 468.835 463 473.305 463 478.82V508.774C463 514.288 458.523 518.758 453 518.758H423C417.477 518.758 413 514.288 413 508.774V478.82Z" fill="url(#paint4_linear)"/>
<path d="M280 280.125C280 274.611 284.477 270.141 290 270.141H320C325.523 270.141 330 274.611 330 280.125V310.079C330 315.594 325.523 320.064 320 320.064H290C284.477 320.064 280 315.594 280 310.079V280.125Z" fill="url(#paint5_linear)"/>
<path d="M1560 222.214C1560 216.7 1564.48 212.23 1570 212.23H1600C1605.52 212.23 1610 216.7 1610 222.214V252.168C1610 257.683 1605.52 262.153 1600 262.153H1570C1564.48 262.153 1560 257.683 1560 252.168V222.214Z" fill="url(#paint6_linear)"/>
<path d="M1560 387.959C1560 382.445 1564.48 377.975 1570 377.975H1600C1605.52 377.975 1610 382.445 1610 387.959V417.913C1610 423.428 1605.52 427.898 1600 427.898H1570C1564.48 427.898 1560 423.428 1560 417.913V387.959Z" fill="url(#paint7_linear)"/>
<path d="M1708 561.692C1708 556.178 1712.48 551.708 1718 551.708H1748C1753.52 551.708 1758 556.178 1758 561.692V591.646C1758 597.16 1753.52 601.631 1748 601.631H1718C1712.48 601.631 1708 597.16 1708 591.646V561.692Z" fill="url(#paint8_linear)"/>
<path d="M755 46.4846C755 40.9703 759.477 36.5 765 36.5H795C800.523 36.5 805 40.9703 805 46.4846V76.4386C805 81.9529 800.523 86.4232 795 86.4232H765C759.477 86.4232 755 81.9529 755 76.4386V46.4846Z" fill="url(#paint9_linear)"/>
<path d="M2334 543.72C2334 538.205 2338.48 533.735 2344 533.735H2374C2379.52 533.735 2384 538.205 2384 543.72V573.674C2384 579.188 2379.52 583.658 2374 583.658H2344C2338.48 583.658 2334 579.188 2334 573.674V543.72Z" fill="url(#paint10_linear)"/>
<path d="M2020 47.4832C2020 41.9688 2024.48 37.4985 2030 37.4985H2060C2065.52 37.4985 2070 41.9688 2070 47.4832V77.4371C2070 82.9515 2065.52 87.4217 2060 87.4217H2030C2024.48 87.4217 2020 82.9515 2020 77.4371V47.4832Z" fill="url(#paint11_linear)"/>
<path d="M99 131.354C99 125.84 103.477 121.369 109 121.369H139C144.523 121.369 149 125.84 149 131.354V161.308C149 166.822 144.523 171.293 139 171.293H109C103.477 171.293 99 166.822 99 161.308V131.354Z" fill="url(#paint12_linear)"/>
<path d="M87 528.743C87 523.228 91.4772 518.758 97 518.758H127C132.523 518.758 137 523.228 137 528.743V558.697C137 564.211 132.523 568.681 127 568.681H97C91.4772 568.681 87 564.211 87 558.697V528.743Z" fill="url(#paint13_linear)"/>
</g>
</g>
<defs>
<linearGradient id="paint0_linear" x1="1321" y1="212.23" x2="1270.2" y2="262.516" gradientUnits="userSpaceOnUse">
<stop stop-color="#FEC6DC"/>
<stop offset="1" stop-color="#D7D7FA"/>
</linearGradient>
<linearGradient id="paint1_linear" x1="1902" y1="212.23" x2="1851.2" y2="262.516" gradientUnits="userSpaceOnUse">
<stop stop-color="#FEC6DC"/>
<stop offset="1" stop-color="#D7D7FA"/>
</linearGradient>
<linearGradient id="paint2_linear" x1="2109" y1="377.975" x2="2058.2" y2="428.261" gradientUnits="userSpaceOnUse">
<stop stop-color="#FEC6DC"/>
<stop offset="1" stop-color="#D7D7FA"/>
</linearGradient>
<linearGradient id="paint3_linear" x1="734" y1="576.669" x2="683.2" y2="626.955" gradientUnits="userSpaceOnUse">
<stop stop-color="#FEC6DC"/>
<stop offset="1" stop-color="#D7D7FA"/>
</linearGradient>
<linearGradient id="paint4_linear" x1="463" y1="468.835" x2="412.2" y2="519.121" gradientUnits="userSpaceOnUse">
<stop stop-color="#FEC6DC"/>
<stop offset="1" stop-color="#D7D7FA"/>
</linearGradient>
<linearGradient id="paint5_linear" x1="330" y1="270.141" x2="279.2" y2="320.427" gradientUnits="userSpaceOnUse">
<stop stop-color="#FEC6DC"/>
<stop offset="1" stop-color="#D7D7FA"/>
</linearGradient>
<linearGradient id="paint6_linear" x1="1610" y1="212.23" x2="1559.2" y2="262.516" gradientUnits="userSpaceOnUse">
<stop stop-color="#FEC6DC"/>
<stop offset="1" stop-color="#D7D7FA"/>
</linearGradient>
<linearGradient id="paint7_linear" x1="1610" y1="377.975" x2="1559.2" y2="428.261" gradientUnits="userSpaceOnUse">
<stop stop-color="#FEC6DC"/>
<stop offset="1" stop-color="#D7D7FA"/>
</linearGradient>
<linearGradient id="paint8_linear" x1="1758" y1="551.708" x2="1707.2" y2="601.994" gradientUnits="userSpaceOnUse">
<stop stop-color="#FEC6DC"/>
<stop offset="1" stop-color="#D7D7FA"/>
</linearGradient>
<linearGradient id="paint9_linear" x1="805" y1="36.5" x2="754.2" y2="86.7864" gradientUnits="userSpaceOnUse">
<stop stop-color="#FEC6DC"/>
<stop offset="1" stop-color="#D7D7FA"/>
</linearGradient>
<linearGradient id="paint10_linear" x1="2384" y1="533.735" x2="2333.2" y2="584.022" gradientUnits="userSpaceOnUse">
<stop stop-color="#FEC6DC"/>
<stop offset="1" stop-color="#D7D7FA"/>
</linearGradient>
<linearGradient id="paint11_linear" x1="2070" y1="37.4985" x2="2019.2" y2="87.785" gradientUnits="userSpaceOnUse">
<stop stop-color="#FEC6DC"/>
<stop offset="1" stop-color="#D7D7FA"/>
</linearGradient>
<linearGradient id="paint12_linear" x1="149" y1="121.369" x2="98.2002" y2="171.656" gradientUnits="userSpaceOnUse">
<stop stop-color="#FEC6DC"/>
<stop offset="1" stop-color="#D7D7FA"/>
</linearGradient>
<linearGradient id="paint13_linear" x1="137" y1="518.758" x2="86.2002" y2="569.044" gradientUnits="userSpaceOnUse">
<stop stop-color="#FEC6DC"/>
<stop offset="1" stop-color="#D7D7FA"/>
</linearGradient>
<clipPath id="clip0">
<rect width="2500" height="650" fill="white"/>
</clipPath>
</defs>
</svg>
